<svg width="94" height="91" viewBox="0 0 94 91" fill="none" xmlns="http://www.w3.org/2000/svg">
<path d="M46.9874 30.3269C38.3572 30.3269 31.3143 37.1451 31.3143 45.5C31.3143 53.8549 38.3572 60.6731 46.9874 60.6731C55.6175 60.6731 62.6604 53.8549 62.6604 45.5C62.6604 37.1451 55.6175 30.3269 46.9874 30.3269ZM93.9948 45.5C93.9948 39.2168 94.0535 32.9904 93.6891 26.7186C93.3246 19.4336 91.6079 12.9683 86.1053 7.64117C80.591 2.30269 73.9243 0.652199 66.3994 0.299336C59.9091 -0.0535279 53.4776 0.00338571 46.9991 0.00338571C40.5089 0.00338571 34.0774 -0.0535279 27.5989 0.299336C20.0739 0.652199 13.3955 2.31407 7.89293 7.64117C2.37856 12.9797 0.673687 19.4336 0.309198 26.7186C-0.0552915 33.0018 0.00349727 39.2281 0.00349727 45.5C0.00349727 51.7719 -0.0552915 58.0096 0.309198 64.2814C0.673687 71.5664 2.39032 78.0317 7.89293 83.3588C13.4073 88.6973 20.0739 90.3478 27.5989 90.7007C34.0891 91.0535 40.5206 90.9966 46.9991 90.9966C53.4894 90.9966 59.9209 91.0535 66.3994 90.7007C73.9243 90.3478 80.6027 88.6859 86.1053 83.3588C91.6197 78.0203 93.3246 71.5664 93.6891 64.2814C94.0653 58.0096 93.9948 51.7832 93.9948 45.5ZM46.9874 68.8459C33.6423 68.8459 22.8723 58.4194 22.8723 45.5C22.8723 32.5806 33.6423 22.1541 46.9874 22.1541C60.3324 22.1541 71.1025 32.5806 71.1025 45.5C71.1025 58.4194 60.3324 68.8459 46.9874 68.8459ZM72.0901 26.6503C68.9743 26.6503 66.4582 24.2144 66.4582 21.198C66.4582 18.1815 68.9743 15.7456 72.0901 15.7456C75.2059 15.7456 77.7221 18.1815 77.7221 21.198C77.723 21.9142 77.5779 22.6236 77.2952 23.2855C77.0125 23.9474 76.5977 24.5489 76.0746 25.0553C75.5514 25.5618 74.9302 25.9634 74.2465 26.2371C73.5628 26.5107 72.83 26.6512 72.0901 26.6503Z" fill="white"/>
</svg>
