<svg width="99" height="91" viewBox="0 0 99 91" fill="none" xmlns="http://www.w3.org/2000/svg">
<path d="M49.1689 0C76.1863 0 98.1689 17.3821 98.1689 38.7516C98.1689 47.3054 94.7696 55.0056 87.6646 62.5923C77.3868 74.1247 54.3997 88.1701 49.1689 90.319C44.0852 92.4082 44.6732 89.1431 44.9059 87.8537L44.9243 87.7463L45.6226 83.6574C45.7879 82.4397 45.9594 80.5475 45.4633 79.3417C44.9121 78.0106 42.7438 77.3182 41.1513 76.9839C17.6007 73.9576 0.168945 57.9066 0.168945 38.7516C0.168945 17.3821 22.1577 0 49.1689 0ZM30.9287 45.8788H21.5881V29.3562C21.5881 29.1103 21.4882 28.8743 21.3104 28.6999C21.1325 28.5254 20.891 28.4266 20.6387 28.425H17.1964C17.071 28.425 16.9467 28.4491 16.8308 28.4959C16.7149 28.5427 16.6095 28.6113 16.5208 28.6978C16.4321 28.7842 16.3617 28.8869 16.3137 28.9998C16.2657 29.1128 16.2409 29.2339 16.2409 29.3562V50.1646C16.2409 50.4093 16.3451 50.6421 16.5104 50.8033V50.8093L16.5227 50.8212L16.5349 50.8331C16.7126 50.9996 16.95 51.0918 17.1964 51.0898H30.9287C31.4554 51.0898 31.8781 50.672 31.8781 50.1586V46.8159C31.8789 46.6936 31.855 46.5724 31.8077 46.4591C31.7604 46.3458 31.6907 46.2427 31.6025 46.1557C31.5144 46.0687 31.4095 45.9994 31.2939 45.9519C31.1783 45.9044 31.0542 45.8795 30.9287 45.8788ZM35.7736 28.425C35.5202 28.425 35.2771 28.5231 35.0979 28.6978C34.9187 28.8724 34.8181 29.1092 34.8181 29.3562V50.1646C34.8181 50.6779 35.2468 51.0898 35.7736 51.0898H39.2158C39.7426 51.0898 40.1652 50.672 40.1652 50.1646V29.3562C40.1652 29.1103 40.0654 28.8743 39.8875 28.6999C39.7096 28.5254 39.4682 28.4266 39.2158 28.425H35.7736ZM59.4344 28.425C59.181 28.425 58.938 28.5231 58.7588 28.6978C58.5796 28.8724 58.4789 29.1092 58.4789 29.3562V41.7123L48.6973 28.8429C48.6726 28.8115 48.646 28.7816 48.6177 28.7533V28.7473C48.5983 28.7265 48.5779 28.7065 48.5564 28.6877L48.5381 28.6698C48.5171 28.6502 48.4945 28.6322 48.4707 28.616H48.4646L48.4339 28.5922L48.4156 28.5802C48.406 28.5733 48.3957 28.5673 48.3849 28.5623L48.3359 28.5325H48.3237L48.3053 28.5205L48.2441 28.4966L48.2196 28.4847C48.1995 28.4776 48.1791 28.4716 48.1583 28.4668H48.1461L48.1277 28.4608L48.0726 28.4489H48.0358L48.0174 28.4429H47.9929L47.9807 28.437H44.4649C44.2126 28.4369 43.9705 28.5342 43.7915 28.7076C43.6124 28.8809 43.5111 29.1162 43.5094 29.3622V50.1706C43.5094 50.6839 43.9382 51.0958 44.4649 51.0958H47.8949C48.4278 51.0958 48.8566 50.6779 48.8566 50.1706V37.8145L58.6566 50.7078C58.7217 50.7966 58.8026 50.8734 58.8954 50.9346L58.9016 50.9406L58.9628 50.9764L58.9873 50.9883C59.0031 50.9974 59.0195 51.0053 59.0363 51.0122L59.0792 51.0301L59.1098 51.0421C59.13 51.0486 59.1505 51.0546 59.1711 51.06H59.1894C59.2692 51.0823 59.3515 51.0943 59.4344 51.0958H62.8644C63.3973 51.0958 63.8261 50.6779 63.8261 50.1706V29.3562C63.8261 29.1092 63.7254 28.8724 63.5462 28.6978C63.367 28.5231 63.124 28.425 62.8706 28.425H59.4344ZM82.8013 32.7049V29.3622C82.8021 29.2399 82.7782 29.1186 82.7309 29.0054C82.6837 28.8921 82.614 28.789 82.5258 28.702C82.4376 28.6149 82.3328 28.5457 82.2171 28.4982C82.1015 28.4507 81.9774 28.4258 81.852 28.425H68.1197C67.8725 28.4253 67.6352 28.5195 67.4582 28.6877H67.4521L67.4459 28.6996L67.4337 28.7175C67.2626 28.8885 67.1661 29.1174 67.1642 29.3562V50.1646C67.1642 50.4093 67.2683 50.6421 67.4337 50.8033L67.4459 50.8212L67.4582 50.8331C67.6362 50.9991 67.8734 51.0911 68.1197 51.0898H81.852C82.3787 51.0898 82.8013 50.672 82.8013 50.1586V46.8159C82.8021 46.6936 82.7782 46.5724 82.7309 46.4591C82.6837 46.3458 82.614 46.2427 82.5258 46.1557C82.4376 46.0687 82.3328 45.9994 82.2171 45.9519C82.1015 45.9044 81.9774 45.8795 81.852 45.8788H72.5052V42.3629H81.8458C82.3726 42.3629 82.7952 41.9451 82.7952 41.4318V38.089C82.796 37.9668 82.7721 37.8455 82.7248 37.7322C82.6775 37.619 82.6078 37.5159 82.5197 37.4288C82.4315 37.3418 82.3266 37.2726 82.211 37.2251C82.0954 37.1775 81.9713 37.1527 81.8458 37.1519H72.5052V33.6361H81.8458C82.3726 33.6361 82.7952 33.2182 82.7952 32.7049H82.8013Z" fill="white"/>
</svg>
