<svg width="85" height="89" viewBox="0 0 85 89" fill="none" xmlns="http://www.w3.org/2000/svg">
<path fill-rule="evenodd" clip-rule="evenodd" d="M1.05114e-06 7.43555C1.05114e-06 5.46353 0.748178 3.57227 2.07994 2.17783C3.41171 0.783395 5.21797 9.91263e-06 7.10136 9.91263e-06H77.8909C78.8243 -0.00158623 79.7487 0.189592 80.6114 0.562598C81.4741 0.935604 82.2581 1.48311 82.9185 2.17378C83.5788 2.86444 84.1026 3.6847 84.4597 4.58759C84.8169 5.49048 85.0005 6.45827 85 7.43555V81.5564C85.001 82.5338 84.8179 83.5019 84.4613 84.4052C84.1046 85.3086 83.5814 86.1294 82.9214 86.8207C82.2615 87.5121 81.4778 88.0605 80.6153 88.4344C79.7528 88.8083 78.8283 89.0005 77.8948 89H7.10136C6.16847 89 5.24473 88.8075 4.3829 88.4336C3.52107 88.0597 2.73805 87.5116 2.07858 86.8207C1.4191 86.1299 0.896101 85.3097 0.539451 84.4071C0.182801 83.5045 -0.000506506 82.5372 1.05114e-06 81.5604V7.43555ZM33.6445 33.9333H45.1543V39.9853C46.8157 36.5062 51.0657 33.375 57.4523 33.375C69.6961 33.375 72.5977 40.3049 72.5977 53.0197V76.5724H60.207V55.9163C60.207 48.6749 58.5457 44.589 54.3266 44.589C48.4732 44.589 46.0391 48.9945 46.0391 55.9163V76.5724H33.6445V33.9333ZM12.3945 76.0181H24.7891V33.375H12.3945V76.0141V76.0181ZM26.5625 19.4667C26.5859 20.5779 26.397 21.6828 26.0071 22.7165C25.6171 23.7502 25.0339 24.692 24.2916 25.4865C23.5493 26.281 22.6629 26.9123 21.6845 27.3433C20.706 27.7742 19.6552 27.9962 18.5938 27.9962C17.5323 27.9962 16.4815 27.7742 15.503 27.3433C14.5246 26.9123 13.6382 26.281 12.8959 25.4865C12.1536 24.692 11.5704 23.7502 11.1804 22.7165C10.7905 21.6828 10.6016 20.5779 10.625 19.4667C10.6709 17.2856 11.5306 15.2101 13.02 13.6845C14.5094 12.1589 16.5102 11.3047 18.5938 11.3047C20.6773 11.3047 22.6781 12.1589 24.1675 13.6845C25.6569 15.2101 26.5166 17.2856 26.5625 19.4667V19.4667Z" fill="white"/>
</svg>
