<svg width="118" height="88" viewBox="0 0 118 88" fill="none" xmlns="http://www.w3.org/2000/svg">
<path d="M111.466 0.0384098C110.955 -0.0128033 110.44 -0.0128033 109.929 0.0384098H4.92088C4.24787 0.0484922 3.57931 0.146607 2.93323 0.330111L57.1248 52.7999L111.466 0.0384098Z" fill="white"/>
<path d="M116.893 5.86682L63.5066 58.5396C62.1326 59.8928 60.274 60.6523 58.3366 60.6523C56.3992 60.6523 54.5406 59.8928 53.1666 58.5396L0.256667 6.26641C0.0940111 6.85867 0.00776851 7.46897 0 8.08271V80.7349C0 82.6617 0.772616 84.5096 2.14788 85.8721C3.52315 87.2346 5.38841 88.0001 7.33333 88.0001H110C111.945 88.0001 113.81 87.2346 115.185 85.8721C116.561 84.5096 117.333 82.6617 117.333 80.7349V8.08271C117.304 7.32588 117.156 6.57821 116.893 5.86682V5.86682ZM12.3567 80.7349H7.25999V75.5402L33.9166 49.3491L39.0866 54.4711L12.3567 80.7349ZM109.927 80.7349H104.793L78.0632 54.4711L83.2332 49.3491L109.89 75.5402L109.927 80.7349Z" fill="white"/>
</svg>
