<svg width="102" height="99" viewBox="0 0 102 99" fill="none" xmlns="http://www.w3.org/2000/svg">
<path d="M50.9787 0C22.8693 0 0 22.2008 0 49.4835C0 76.791 22.8693 99 50.9787 99C79.1137 99 102 76.7869 102 49.4835C102 22.2008 79.1137 0 50.9787 0ZM25.109 67.6665C30.946 65.931 37.0157 65.0441 43.1205 65.0347C53.38 65.0347 63.5078 67.5592 72.4115 72.336C72.9428 72.6165 73.423 73.5405 73.644 74.6955C73.8565 75.8505 73.7715 77.0344 73.423 77.649C73.2588 77.9414 73.0364 78.1992 72.7687 78.4075C72.5011 78.6158 72.1935 78.7705 71.8638 78.8626C71.5341 78.9547 71.1889 78.9823 70.8481 78.9439C70.5073 78.9056 70.1777 78.8019 69.8785 78.639C63.3386 75.1568 56.1448 72.985 48.7237 72.2523C41.3027 71.5196 33.8056 72.2411 26.6772 74.3738C26.35 74.4765 26.005 74.5149 25.6623 74.4869C25.3196 74.459 24.986 74.3651 24.681 74.2107C24.3761 74.0564 24.1058 73.8447 23.886 73.588C23.6661 73.3313 23.5011 73.0347 23.4005 72.7155C22.9458 71.2718 23.885 68.0542 25.109 67.6665ZM22.8863 49.434C29.4803 47.6953 36.2832 46.8144 43.1163 46.8146C55.4158 46.8146 67.626 49.7021 78.4337 55.1719C79.1945 55.5431 79.7513 56.1784 80.0063 56.9539C80.1352 57.3455 80.182 57.7582 80.1441 58.1677C80.1061 58.5772 79.9841 58.9751 79.7853 59.3381C78.8205 61.1696 77.69 62.403 76.9803 62.403C76.4625 62.4008 75.9526 62.2792 75.4928 62.0482C65.5019 56.9856 54.391 54.3607 43.1205 54.4005C36.8515 54.3883 30.6096 55.2 24.565 56.8136C24.1618 56.9206 23.7408 56.9495 23.326 56.8985C22.9113 56.8476 22.511 56.7179 22.1479 56.5168C21.7848 56.3157 21.4661 56.0472 21.2099 55.7265C20.9538 55.4059 20.7652 55.0394 20.655 54.648C20.179 52.9073 21.2713 49.863 22.8863 49.434V49.434ZM22.3125 37.5292C21.8341 37.6484 21.3362 37.6744 20.8474 37.6058C20.3586 37.5372 19.8887 37.3753 19.4647 37.1295C19.0407 36.8837 18.6711 36.5588 18.3772 36.1735C18.0833 35.7883 17.8709 35.3504 17.7523 34.8851C17.2295 32.8309 18.5512 30.4466 20.4722 29.9764C27.8822 28.205 35.4849 27.3061 43.1163 27.2993C57.7788 27.2993 71.8292 30.5003 84.8682 36.8156C85.7641 37.248 86.4464 38.0079 86.7652 38.9284C87.084 39.8489 87.0132 40.8546 86.5682 41.7244C85.9605 42.9124 84.643 44.1911 83.1895 44.1911C82.6195 44.1891 82.0568 44.0666 81.5405 43.8323C69.6175 38.0269 56.4554 35.0228 43.1163 35.0625C36.1675 35.0625 29.1678 35.8916 22.3125 37.5292Z" fill="white"/>
</svg>
