<svg width="138" height="91" viewBox="0 0 138 91" fill="none" xmlns="http://www.w3.org/2000/svg">
<path d="M134.444 14.2779C133.672 11.5225 132.167 9.02788 130.09 7.05926C127.955 5.0301 125.337 3.5786 122.485 2.84175C111.811 0.0281854 69.0445 0.0281862 69.0445 0.0281862C51.2158 -0.17466 33.3914 0.717507 15.672 2.69965C12.8197 3.49094 10.2072 4.97487 8.06685 7.01947C5.96378 9.04297 4.44047 11.5382 3.64472 14.2722C1.73316 24.5701 0.804392 35.0264 0.87094 45.5C0.802732 55.9642 1.72922 66.417 3.64472 76.7277C4.42342 79.4503 5.94104 81.9342 8.0498 83.9407C10.1586 85.9471 12.7845 87.3965 15.672 88.1639C26.4886 90.9717 69.0445 90.9717 69.0445 90.9717C86.8959 91.1749 104.743 90.2827 122.485 88.3003C125.337 87.5634 127.955 86.1119 130.09 84.0828C132.167 82.1145 133.669 79.6196 134.439 76.8641C136.4 66.5702 137.354 56.1096 137.286 45.6307C137.434 35.1074 136.481 24.5975 134.444 14.2722V14.2779ZM55.4484 64.9619V26.0437L91.0301 45.5057L55.4484 64.9619Z" fill="white"/>
</svg>
